<mxfile host="app.diagrams.net" modified="2024-02-26T07:37:01.561Z" agent="Mozilla/5.0 (Windows NT 10.0; Win64; x64) AppleWebKit/537.36 (KHTML, like Gecko) Chrome/122.0.0.0 Safari/537.36" version="23.1.1" etag="QEwN41_0tZX3zF6c_PYf" type="github">
  <diagram name="第 1 页" id="nxT7Srsqe-B9F_1n1DQQ">
    <mxGraphModel>
      <root>
        <mxCell id="0" />
        <mxCell id="1" parent="0" />
      </root>
    </mxGraphModel>
  </diagram>
</mxfile>
